<?xml version="1.0" encoding="UTF-8"?>
<svg id="Calque_1" data-name="Calque 1" xmlns="http://www.w3.org/2000/svg" viewBox="0 0 1080 300">
  <defs>
    <style>
      .cls-1, .cls-2 {
        fill: none;
      }

      .cls-3 {
        fill: #f58b00;
      }

      .cls-4 {
        stroke-width: .25px;
      }

      .cls-4, .cls-5, .cls-6 {
        fill: #b77f66;
      }

      .cls-4, .cls-6, .cls-2 {
        stroke: #b77f66;
        stroke-miterlimit: 10;
      }

      .cls-6, .cls-2 {
        stroke-width: 4px;
      }
    </style>
  </defs>
  <path class="cls-3" d="M962.16,278.02l-902.01-7.77,902.01-7.77c10.27.28,10.5,15.14,0,15.53h0Z"/>
  <path class="cls-5" d="M280.7,126.06l15.57,51.53h.66l15.79-51.53h48.02l-37.71,118.62h-53.5l-37.71-118.62h48.9Z"/>
  <path class="cls-5" d="M541.2,244.68h-51.31v-59.2c0-33.77,22.15-61.39,60.95-61.39s61.83,27.19,61.83,61.39v59.2h-51.53v-59.2c0-6.36-4.39-10.3-10.09-10.3s-9.87,3.95-9.87,10.3v59.2Z"/>
  <path class="cls-5" d="M674.74,94.92v31.13h10.09v19.08h-10.09v40.34c0,5.92,4.61,10.09,10.09,10.09v51.09c-37.28,0-61.17-27.63-61.17-61.17v-90.56h51.09Z"/>
  <path class="cls-5" d="M745.35,126.06v59.42c0,5.48,4.17,10.09,9.87,10.09s10.09-4.39,10.09-10.09v-59.42h51.53v59.42c0,33.33-24.56,61.17-60.95,61.17s-61.83-26.75-61.83-61.17v-59.42h51.31Z"/>
  <path class="cls-5" d="M890.95,175.61c-.88-.22-1.76-.44-2.85-.44-5.7,0-10.09,4.6-10.09,10.3v59.2h-51.09v-59.2c0-36.4,27.63-61.39,60.95-61.39,6.36,0,12.94,1.1,19.51,2.85l-16.44,48.68Z"/>
  <path class="cls-5" d="M416.87,124.09c-32.67,0-60.52,23.02-60.52,61.39,0,33.99,27.63,59.2,61.17,59.2h61.39v-59.2c0-36.84-28.28-61.39-62.05-61.39ZM437.8,205.84h-20.54c-11.22,0-20.46-8.45-20.46-19.84,0-12.86,9.32-20.57,20.24-20.57s20.76,8.23,20.76,20.57v19.84Z"/>
  <path class="cls-3" d="M1010.97,144.61c-23.42-24.02-60.26-28.03-88.4-.6-24.93,24.3-23.61,62.64.43,87.3l42.85,43.96c.64.65,1.68.67,2.34.03l42.23-41.18c27.01-26.34,24.75-64.69.55-89.51ZM966.01,218.39l-14.72-15.1c-8.04-8.25-8.47-21.09-.12-29.23,9.43-9.19,21.76-7.86,29.6.17,8.1,8.3,8.84,21.14-.21,29.97l-14.55,14.18Z"/>
  <g id="Van">
    <path class="cls-1" d="M126.27,178.56v13.05c8.48,16.72,11.68,31.7,13.04,40.37,1.36-8.69,4.06-23.74,12.31-40.51v-12.91h-25.34Z"/>
    <path class="cls-1" d="M129.8,90.1v9.38c0,3.31-1.36,6.31-3.54,8.49v19.07h25.34v-18.83c-2.33-2.19-3.81-5.29-3.81-8.73v-9.6c-2.25-2.31-5.32-3.79-8.73-3.79-3.7,0-6.97,1.54-9.27,4Z"/>
    <path class="cls-2" d="M129.8,72.48v17.62c2.31-2.47,5.57-4,9.27-4,3.41,0,6.48,1.47,8.73,3.79v-17.4c0-6.6,5.4-12,12-12h47.41c-12.8-23.51-37.58-39-68.97-39s-55.2,15.78-67.81,39h47.37c6.6,0,12,5.4,12,12Z"/>
    <path class="cls-2" d="M159.8,111.48c-3.16,0-6.04-1.25-8.19-3.27v18.83h-25.34v-19.07c-2.17,2.17-5.17,3.51-8.46,3.51h-56c-.33,0-.66-.02-.99-.05v18.24c13.2,5.87,34.64,17.95,52.49,41.31,5.32,6.96,9.56,13.94,12.96,20.63v-.05h25.34v-.09c3.27-6.65,7.41-13.58,12.69-20.49,17.85-23.35,39.27-35.44,52.48-41.3v-18.24c-.32.03-.65.05-.98.05h-56Z"/>
    <path class="cls-1" d="M70.43,60.48h-8.63c-6.6,0-12,5.4-12,12v27c0,6.27,4.87,11.44,11.01,11.95v-12.25c0-14.05,3.41-27.28,9.62-38.7Z"/>
    <path class="cls-1" d="M129.8,90.1c-2.2,2.35-3.54,5.55-3.54,9.09v8.78c2.18-2.18,3.54-5.18,3.54-8.49v-9.38Z"/>
    <path class="cls-6" d="M117.8,111.48c3.29,0,6.29-1.35,8.46-3.51v-8.78c0-3.54,1.34-6.73,3.54-9.09v-17.62c0-6.6-5.4-12-12-12h-47.37c-6.21,11.43-9.62,24.65-9.62,38.7v12.25c.33.03.66.05.99.05h56Z"/>
    <path class="cls-1" d="M215.8,60.48h-8.59c6.17,11.32,9.57,24.49,9.57,38.7v12.25c6.15-.5,11.02-5.68,11.02-11.95v-27c0-6.6-5.4-12-12-12Z"/>
    <path class="cls-1" d="M151.61,108.21v-9.03c0-3.55-1.46-6.89-3.81-9.3v9.6c0,3.44,1.47,6.54,3.81,8.73Z"/>
    <path class="cls-6" d="M207.21,60.48h-47.41c-6.6,0-12,5.4-12,12v17.4c2.35,2.42,3.81,5.75,3.81,9.3v9.03c2.15,2.02,5.03,3.27,8.19,3.27h56c.33,0,.65-.02.98-.05v-12.25c0-14.21-3.4-27.38-9.57-38.7Z"/>
    <g>
      <rect class="cls-1" x="126.27" y="208.98" width="25.34" height="15.35"/>
      <path class="cls-2" d="M60.82,208.98v9.85c0,3.04,2.46,5.5,5.5,5.5h54.45c3.04,0,5.5-2.46,5.5-5.5v-9.85H60.82Z"/>
      <path class="cls-4" d="M87.06,245.48h12.95c7.62,0,13.79-6.18,13.79-13.79v-7.36h-40.54v7.36c0,7.62,6.18,13.79,13.79,13.79Z"/>
      <path class="cls-2" d="M151.61,208.98v9.85c0,3.04,2.46,5.5,5.5,5.5h54.17c3.04,0,5.5-2.46,5.5-5.5v-9.85h-65.17Z"/>
      <path class="cls-4" d="M177.87,245.48h12.95c7.62,0,13.79-6.18,13.79-13.79v-7.36h-40.54v7.36c0,7.62,6.18,13.79,13.79,13.79Z"/>
      <path class="cls-6" d="M113.3,170.98c-17.85-23.36-39.29-35.44-52.49-41.31v79.31h65.45v-17.37c-3.4-6.7-7.64-13.67-12.96-20.63ZM81.3,195.16c-6.21,0-11.25-5.04-11.25-11.25s5.04-11.25,11.25-11.25,11.25,5.04,11.25,11.25-5.04,11.25-11.25,11.25Z"/>
      <path class="cls-6" d="M164.3,170.98c-5.28,6.91-9.42,13.83-12.69,20.49v17.51h65.17v-79.3c-13.2,5.87-34.63,17.95-52.48,41.3ZM195.36,195.16c-6.21,0-11.25-5.04-11.25-11.25s5.04-11.25,11.25-11.25,11.25,5.04,11.25,11.25-5.04,11.25-11.25,11.25Z"/>
    </g>
  </g>
</svg>